<!--?xml version="1.0" encoding="utf-8"?-->
<!-- Generator: Adobe Illustrator 18.1.1, SVG Export Plug-In . SVG Version: 6.00 Build 0)  -->

<svg version="1.1" id="_x31_0" xmlns="http://www.w3.org/2000/svg" xmlns:xlink="http://www.w3.org/1999/xlink" x="0px" y="0px" viewBox="0 0 512 512" style="width: 256px; height: 256px; opacity: 1;" xml:space="preserve">
<style type="text/css">
	.st0{fill:#374149;}
</style>
<g>
	<path class="st0" d="M433.394,67.678C385.558,27.772,322.558,5.795,256,5.795c-66.558,0-129.558,21.977-177.394,61.883
		C27.918,109.963,0,167.037,0,228.38c0,77.664,46.562,149.114,121.023,189.254l5.848,41.672c2.703,19.27,15.48,35.637,33.523,42.93
		c6.59,2.664,13.523,3.969,20.406,3.969c11.965,0,23.801-3.938,33.531-11.539l56.426-44.062c61.066-3,118.352-24.574,162.637-61.52
		C484.086,346.799,512,289.728,512,228.38C512,167.037,484.086,109.963,433.394,67.678z M180.797,451.646l-9.946-70.886
		c-29.691-11.566-55.418-29.008-75.101-50.504c-0.29-0.32-0.606-0.621-0.891-0.938c-2.004-2.218-3.867-4.527-5.734-6.828
		c-0.84-1.035-1.738-2.039-2.55-3.09c-1.41-1.828-2.699-3.722-4.031-5.594c-1.106-1.562-2.262-3.098-3.309-4.688
		c-1.125-1.707-2.129-3.473-3.184-5.214c-1.07-1.778-2.191-3.531-3.191-5.336c-1.141-2.07-2.152-4.195-3.195-6.309
		c-0.738-1.492-1.535-2.961-2.222-4.469c-1.492-3.293-2.848-6.645-4.098-10.031c-0.118-0.32-0.262-0.629-0.379-0.949
		c-5.523-15.333-8.496-31.59-8.496-48.43c0-92.847,90.23-168.121,201.531-168.121c111.305,0,201.531,75.274,201.531,168.121
		c0,92.848-90.226,168.118-201.531,168.118c-1.453,0-2.886-0.066-4.336-0.094l-47.328,36.961L180.797,451.646z" style="fill: rgb(75, 75, 75);"></path>
	<circle class="st0" cx="154.359" cy="235.07" r="27.283" style="fill: rgb(75, 75, 75);"></circle>
	<path class="st0" d="M283.282,235.072c0-15.07-12.215-27.286-27.282-27.286c-15.066,0-27.282,12.215-27.282,27.286
		c0,15.066,12.215,27.281,27.282,27.281C271.066,262.353,283.282,250.139,283.282,235.072z" style="fill: rgb(75, 75, 75);"></path>
	<circle class="st0" cx="357.641" cy="235.07" r="27.283" style="fill: rgb(75, 75, 75);"></circle>
</g>
</svg>
