<svg version="1.1" id="_x31_0" xmlns="http://www.w3.org/2000/svg" x="0" y="0" viewBox="0 0 512 512" style="width:256px;height:256px" xml:space="preserve" opacity="1"><style type="text/css">.st0{fill:#374149}</style><g><path class="st0" d="M433.394 67.678C385.558 27.772 322.558 5.795 256 5.795S126.442 27.772 78.606 67.678C27.918 109.963 0 167.037 0 228.38c0 77.664 46.562 149.114 121.023 189.254l5.848 41.672a54.463 54.463 0 0053.929 46.899 54.441 54.441 0 0033.531-11.539l56.426-44.062c61.066-3 118.352-24.574 162.637-61.52C484.086 346.799 512 289.728 512 228.38c0-61.343-27.914-118.417-78.606-160.702zM180.797 451.646l-9.946-70.886c-29.691-11.566-55.418-29.008-75.101-50.504-.29-.32-.606-.621-.891-.938-2.004-2.218-3.867-4.527-5.734-6.828-.84-1.035-1.738-2.039-2.55-3.09-1.41-1.828-2.699-3.722-4.031-5.594-1.106-1.562-2.262-3.098-3.309-4.688-1.125-1.707-2.129-3.473-3.184-5.214-1.07-1.778-2.191-3.531-3.191-5.336-1.141-2.07-2.152-4.195-3.195-6.309-.738-1.492-1.535-2.961-2.222-4.469a151.046 151.046 0 01-4.098-10.031c-.118-.32-.262-.629-.379-.949-5.523-15.333-8.496-31.59-8.496-48.43 0-92.847 90.23-168.121 201.531-168.121 111.305 0 201.531 75.274 201.531 168.121 0 92.848-90.226 168.118-201.531 168.118-1.453 0-2.886-.066-4.336-.094l-47.328 36.961-23.54 18.281z" fill="#4b4b4b"/><circle class="st0" cx="154.359" cy="235.07" r="27.283" fill="#4b4b4b"/><path class="st0" d="M283.282 235.072c0-15.07-12.215-27.286-27.282-27.286-15.066 0-27.282 12.215-27.282 27.286 0 15.066 12.215 27.281 27.282 27.281 15.066 0 27.282-12.214 27.282-27.281z" fill="#4b4b4b"/><circle class="st0" cx="357.641" cy="235.07" r="27.283" fill="#4b4b4b"/></g></svg>