<svg version="1.1" id="_x31_0" xmlns="http://www.w3.org/2000/svg" x="0" y="0" viewBox="0 0 512 512" style="width:256px;height:256px" xml:space="preserve" opacity="1"><g><path d="M406.612 264.121c-6.772-6.791-6.757-17.791.035-24.563l93.769-93.492c15.414-15.371 15.45-40.329.082-55.746l-77.929-78.152c-15.371-15.414-40.329-15.453-55.743-.082l-93.765 93.495c-6.795 6.773-17.791 6.757-24.563-.035l-93.495-93.769c-15.371-15.414-40.329-15.449-55.743-.078L21.107 89.624c-15.414 15.371-15.453 40.329-.082 55.743l93.495 93.769c6.773 6.792 6.757 17.787-.035 24.559L5.104 372.758c-6.792 6.772-6.807 17.771-.035 24.563L114.13 506.699c6.773 6.796 17.772 6.811 24.564.039l109.378-109.066c6.792-6.772 17.791-6.757 24.563.039l93.496 93.765c15.371 15.414 40.329 15.453 55.742.082l78.152-77.929c15.414-15.371 15.453-40.325.082-55.743l-93.495-93.765z" fill="#fff"/></g></svg>